<svg xmlns="http://www.w3.org/2000/svg" viewBox="0 0 32 32" shape-rendering="crispEdges">
  <!-- Pixel-art SU700, generated by tools/favicon.py -->
  <rect x="1" y="2" width="24" height="1" fill="#3e546d"/>
  <rect x="25" y="2" width="1" height="1" fill="#dfe3e7"/>
  <rect x="26" y="2" width="1" height="1" fill="#3e546d"/>
  <rect x="27" y="2" width="4" height="1" fill="#dfe3e7"/>
  <rect x="0" y="3" width="1" height="1" fill="#3e546d"/>
  <rect x="1" y="3" width="2" height="1" fill="#ccd3d7"/>
  <rect x="3" y="3" width="8" height="1" fill="#3e546d"/>
  <rect x="11" y="3" width="1" height="1" fill="#ccd3d7"/>
  <rect x="12" y="3" width="1" height="1" fill="#3e546d"/>
  <rect x="13" y="3" width="1" height="1" fill="#ccd3d7"/>
  <rect x="14" y="3" width="1" height="1" fill="#3e546d"/>
  <rect x="15" y="3" width="1" height="1" fill="#ccd3d7"/>
  <rect x="16" y="3" width="1" height="1" fill="#3e546d"/>
  <rect x="17" y="3" width="1" height="1" fill="#ccd3d7"/>
  <rect x="18" y="3" width="1" height="1" fill="#3e546d"/>
  <rect x="19" y="3" width="1" height="1" fill="#ccd3d7"/>
  <rect x="20" y="3" width="1" height="1" fill="#3e546d"/>
  <rect x="21" y="3" width="1" height="1" fill="#ccd3d7"/>
  <rect x="22" y="3" width="10" height="1" fill="#3e546d"/>
  <rect x="0" y="4" width="1" height="1" fill="#3e546d"/>
  <rect x="1" y="4" width="2" height="1" fill="#ccd3d7"/>
  <rect x="3" y="4" width="1" height="1" fill="#3e546d"/>
  <rect x="4" y="4" width="1" height="1" fill="#262d35"/>
  <rect x="5" y="4" width="1" height="1" fill="#3e546d"/>
  <rect x="6" y="4" width="1" height="1" fill="#262d35"/>
  <rect x="7" y="4" width="1" height="1" fill="#3e546d"/>
  <rect x="8" y="4" width="1" height="1" fill="#262d35"/>
  <rect x="9" y="4" width="2" height="1" fill="#3e546d"/>
  <rect x="11" y="4" width="1" height="1" fill="#262d35"/>
  <rect x="12" y="4" width="1" height="1" fill="#3e546d"/>
  <rect x="13" y="4" width="1" height="1" fill="#262d35"/>
  <rect x="14" y="4" width="1" height="1" fill="#3e546d"/>
  <rect x="15" y="4" width="1" height="1" fill="#262d35"/>
  <rect x="16" y="4" width="1" height="1" fill="#3e546d"/>
  <rect x="17" y="4" width="1" height="1" fill="#262d35"/>
  <rect x="18" y="4" width="1" height="1" fill="#3e546d"/>
  <rect x="19" y="4" width="1" height="1" fill="#262d35"/>
  <rect x="20" y="4" width="1" height="1" fill="#3e546d"/>
  <rect x="21" y="4" width="1" height="1" fill="#262d35"/>
  <rect x="22" y="4" width="1" height="1" fill="#3e546d"/>
  <rect x="23" y="4" width="5" height="1" fill="#91a0ae"/>
  <rect x="28" y="4" width="4" height="1" fill="#3e546d"/>
  <rect x="0" y="5" width="1" height="1" fill="#3e546d"/>
  <rect x="1" y="5" width="2" height="1" fill="#ccd3d7"/>
  <rect x="3" y="5" width="20" height="1" fill="#3e546d"/>
  <rect x="23" y="5" width="1" height="1" fill="#91a0ae"/>
  <rect x="24" y="5" width="2" height="1" fill="#ede4de"/>
  <rect x="26" y="5" width="1" height="1" fill="#262d35"/>
  <rect x="27" y="5" width="1" height="1" fill="#91a0ae"/>
  <rect x="28" y="5" width="1" height="1" fill="#3e546d"/>
  <rect x="29" y="5" width="1" height="1" fill="#262d35"/>
  <rect x="30" y="5" width="2" height="1" fill="#3e546d"/>
  <rect x="0" y="6" width="4" height="1" fill="#3e546d"/>
  <rect x="4" y="6" width="1" height="1" fill="#262d35"/>
  <rect x="5" y="6" width="1" height="1" fill="#3e546d"/>
  <rect x="6" y="6" width="1" height="1" fill="#262d35"/>
  <rect x="7" y="6" width="1" height="1" fill="#3e546d"/>
  <rect x="8" y="6" width="1" height="1" fill="#262d35"/>
  <rect x="9" y="6" width="2" height="1" fill="#9ba7b1"/>
  <rect x="11" y="6" width="1" height="1" fill="#566b80"/>
  <rect x="12" y="6" width="1" height="1" fill="#3e546d"/>
  <rect x="13" y="6" width="1" height="1" fill="#566b80"/>
  <rect x="14" y="6" width="1" height="1" fill="#3e546d"/>
  <rect x="15" y="6" width="1" height="1" fill="#566b80"/>
  <rect x="16" y="6" width="1" height="1" fill="#3e546d"/>
  <rect x="17" y="6" width="1" height="1" fill="#566b80"/>
  <rect x="18" y="6" width="1" height="1" fill="#3e546d"/>
  <rect x="19" y="6" width="1" height="1" fill="#566b80"/>
  <rect x="20" y="6" width="1" height="1" fill="#3e546d"/>
  <rect x="21" y="6" width="1" height="1" fill="#566b80"/>
  <rect x="22" y="6" width="1" height="1" fill="#3e546d"/>
  <rect x="23" y="6" width="1" height="1" fill="#91a0ae"/>
  <rect x="24" y="6" width="2" height="1" fill="#ede4de"/>
  <rect x="26" y="6" width="1" height="1" fill="#3e546d"/>
  <rect x="27" y="6" width="1" height="1" fill="#91a0ae"/>
  <rect x="28" y="6" width="4" height="1" fill="#3e546d"/>
  <rect x="0" y="7" width="1" height="1" fill="#3e546d"/>
  <rect x="1" y="7" width="2" height="1" fill="#ccd3d7"/>
  <rect x="3" y="7" width="20" height="1" fill="#3e546d"/>
  <rect x="23" y="7" width="5" height="1" fill="#91a0ae"/>
  <rect x="28" y="7" width="4" height="1" fill="#3e546d"/>
  <rect x="0" y="8" width="4" height="1" fill="#3e546d"/>
  <rect x="4" y="8" width="1" height="1" fill="#262d35"/>
  <rect x="5" y="8" width="1" height="1" fill="#3e546d"/>
  <rect x="6" y="8" width="1" height="1" fill="#262d35"/>
  <rect x="7" y="8" width="2" height="1" fill="#3e546d"/>
  <rect x="9" y="8" width="2" height="1" fill="#9ba7b1"/>
  <rect x="11" y="8" width="1" height="1" fill="#566b80"/>
  <rect x="12" y="8" width="1" height="1" fill="#3e546d"/>
  <rect x="13" y="8" width="1" height="1" fill="#566b80"/>
  <rect x="14" y="8" width="1" height="1" fill="#3e546d"/>
  <rect x="15" y="8" width="1" height="1" fill="#566b80"/>
  <rect x="16" y="8" width="1" height="1" fill="#3e546d"/>
  <rect x="17" y="8" width="1" height="1" fill="#566b80"/>
  <rect x="18" y="8" width="1" height="1" fill="#3e546d"/>
  <rect x="19" y="8" width="1" height="1" fill="#566b80"/>
  <rect x="20" y="8" width="1" height="1" fill="#3e546d"/>
  <rect x="21" y="8" width="1" height="1" fill="#566b80"/>
  <rect x="22" y="8" width="2" height="1" fill="#3e546d"/>
  <rect x="24" y="8" width="1" height="1" fill="#262d35"/>
  <rect x="25" y="8" width="1" height="1" fill="#3e546d"/>
  <rect x="26" y="8" width="1" height="1" fill="#262d35"/>
  <rect x="27" y="8" width="5" height="1" fill="#3e546d"/>
  <rect x="0" y="9" width="1" height="1" fill="#3e546d"/>
  <rect x="1" y="9" width="2" height="1" fill="#ccd3d7"/>
  <rect x="3" y="9" width="21" height="1" fill="#3e546d"/>
  <rect x="24" y="9" width="3" height="1" fill="#262d35"/>
  <rect x="27" y="9" width="5" height="1" fill="#3e546d"/>
  <rect x="0" y="10" width="1" height="1" fill="#3e546d"/>
  <rect x="1" y="10" width="2" height="1" fill="#ccd3d7"/>
  <rect x="3" y="10" width="1" height="1" fill="#3e546d"/>
  <rect x="4" y="10" width="1" height="1" fill="#262d35"/>
  <rect x="5" y="10" width="1" height="1" fill="#3e546d"/>
  <rect x="6" y="10" width="1" height="1" fill="#262d35"/>
  <rect x="7" y="10" width="4" height="1" fill="#3e546d"/>
  <rect x="11" y="10" width="1" height="1" fill="#ccd3d7"/>
  <rect x="12" y="10" width="1" height="1" fill="#3e546d"/>
  <rect x="13" y="10" width="1" height="1" fill="#ccd3d7"/>
  <rect x="14" y="10" width="1" height="1" fill="#3e546d"/>
  <rect x="15" y="10" width="1" height="1" fill="#ccd3d7"/>
  <rect x="16" y="10" width="1" height="1" fill="#3e546d"/>
  <rect x="17" y="10" width="1" height="1" fill="#ccd3d7"/>
  <rect x="18" y="10" width="1" height="1" fill="#3e546d"/>
  <rect x="19" y="10" width="1" height="1" fill="#ccd3d7"/>
  <rect x="20" y="10" width="1" height="1" fill="#3e546d"/>
  <rect x="21" y="10" width="1" height="1" fill="#ccd3d7"/>
  <rect x="22" y="10" width="1" height="1" fill="#3e546d"/>
  <rect x="23" y="10" width="5" height="1" fill="#262d35"/>
  <rect x="28" y="10" width="1" height="1" fill="#3e546d"/>
  <rect x="29" y="10" width="1" height="1" fill="#262d35"/>
  <rect x="30" y="10" width="2" height="1" fill="#3e546d"/>
  <rect x="0" y="11" width="9" height="1" fill="#3e546d"/>
  <rect x="9" y="11" width="2" height="1" fill="#9ba7b1"/>
  <rect x="11" y="11" width="1" height="1" fill="#262d35"/>
  <rect x="12" y="11" width="1" height="1" fill="#3e546d"/>
  <rect x="13" y="11" width="1" height="1" fill="#262d35"/>
  <rect x="14" y="11" width="1" height="1" fill="#3e546d"/>
  <rect x="15" y="11" width="1" height="1" fill="#262d35"/>
  <rect x="16" y="11" width="1" height="1" fill="#3e546d"/>
  <rect x="17" y="11" width="1" height="1" fill="#262d35"/>
  <rect x="18" y="11" width="1" height="1" fill="#3e546d"/>
  <rect x="19" y="11" width="1" height="1" fill="#262d35"/>
  <rect x="20" y="11" width="1" height="1" fill="#3e546d"/>
  <rect x="21" y="11" width="1" height="1" fill="#262d35"/>
  <rect x="22" y="11" width="1" height="1" fill="#3e546d"/>
  <rect x="23" y="11" width="5" height="1" fill="#262d35"/>
  <rect x="28" y="11" width="3" height="1" fill="#4a6b88"/>
  <rect x="31" y="11" width="1" height="1" fill="#3e546d"/>
  <rect x="0" y="12" width="1" height="1" fill="#3e546d"/>
  <rect x="1" y="12" width="2" height="1" fill="#ccd3d7"/>
  <rect x="3" y="12" width="1" height="1" fill="#3e546d"/>
  <rect x="4" y="12" width="1" height="1" fill="#262d35"/>
  <rect x="5" y="12" width="1" height="1" fill="#3e546d"/>
  <rect x="6" y="12" width="1" height="1" fill="#262d35"/>
  <rect x="7" y="12" width="16" height="1" fill="#3e546d"/>
  <rect x="23" y="12" width="5" height="1" fill="#262d35"/>
  <rect x="28" y="12" width="1" height="1" fill="#4a6b88"/>
  <rect x="29" y="12" width="1" height="1" fill="#262d35"/>
  <rect x="30" y="12" width="1" height="1" fill="#4a6b88"/>
  <rect x="31" y="12" width="1" height="1" fill="#3e546d"/>
  <rect x="0" y="13" width="1" height="1" fill="#3e546d"/>
  <rect x="1" y="13" width="2" height="1" fill="#ccd3d7"/>
  <rect x="3" y="13" width="6" height="1" fill="#3e546d"/>
  <rect x="9" y="13" width="1" height="1" fill="#ede4de"/>
  <rect x="10" y="13" width="1" height="1" fill="#e0322c"/>
  <rect x="11" y="13" width="1" height="1" fill="#3e546d"/>
  <rect x="12" y="13" width="8" height="1" fill="#ede4de"/>
  <rect x="20" y="13" width="1" height="1" fill="#3e546d"/>
  <rect x="21" y="13" width="2" height="1" fill="#9ba7b1"/>
  <rect x="23" y="13" width="1" height="1" fill="#3e546d"/>
  <rect x="24" y="13" width="3" height="1" fill="#262d35"/>
  <rect x="27" y="13" width="1" height="1" fill="#3e546d"/>
  <rect x="28" y="13" width="1" height="1" fill="#4a6b88"/>
  <rect x="29" y="13" width="1" height="1" fill="#262d35"/>
  <rect x="30" y="13" width="1" height="1" fill="#4a6b88"/>
  <rect x="31" y="13" width="1" height="1" fill="#3e546d"/>
  <rect x="0" y="14" width="4" height="1" fill="#3e546d"/>
  <rect x="4" y="14" width="1" height="1" fill="#262d35"/>
  <rect x="5" y="14" width="1" height="1" fill="#3e546d"/>
  <rect x="6" y="14" width="1" height="1" fill="#262d35"/>
  <rect x="7" y="14" width="1" height="1" fill="#3e546d"/>
  <rect x="8" y="14" width="1" height="1" fill="#262d35"/>
  <rect x="9" y="14" width="2" height="1" fill="#ede4de"/>
  <rect x="11" y="14" width="1" height="1" fill="#3e546d"/>
  <rect x="12" y="14" width="1" height="1" fill="#ede4de"/>
  <rect x="13" y="14" width="1" height="1" fill="#b8b0aa"/>
  <rect x="14" y="14" width="1" height="1" fill="#ede4de"/>
  <rect x="15" y="14" width="1" height="1" fill="#b8b0aa"/>
  <rect x="16" y="14" width="1" height="1" fill="#ede4de"/>
  <rect x="17" y="14" width="1" height="1" fill="#b8b0aa"/>
  <rect x="18" y="14" width="1" height="1" fill="#ede4de"/>
  <rect x="19" y="14" width="1" height="1" fill="#b8b0aa"/>
  <rect x="20" y="14" width="1" height="1" fill="#3e546d"/>
  <rect x="21" y="14" width="2" height="1" fill="#9ba7b1"/>
  <rect x="23" y="14" width="5" height="1" fill="#3e546d"/>
  <rect x="28" y="14" width="1" height="1" fill="#4a6b88"/>
  <rect x="29" y="14" width="1" height="1" fill="#262d35"/>
  <rect x="30" y="14" width="1" height="1" fill="#4a6b88"/>
  <rect x="31" y="14" width="1" height="1" fill="#3e546d"/>
  <rect x="0" y="15" width="1" height="1" fill="#3e546d"/>
  <rect x="1" y="15" width="2" height="1" fill="#ccd3d7"/>
  <rect x="3" y="15" width="6" height="1" fill="#3e546d"/>
  <rect x="9" y="15" width="10" height="1" fill="#141b1f"/>
  <rect x="19" y="15" width="3" height="1" fill="#d8403a"/>
  <rect x="22" y="15" width="1" height="1" fill="#141b1f"/>
  <rect x="23" y="15" width="1" height="1" fill="#3e546d"/>
  <rect x="24" y="15" width="1" height="1" fill="#262d35"/>
  <rect x="25" y="15" width="1" height="1" fill="#3e546d"/>
  <rect x="26" y="15" width="1" height="1" fill="#262d35"/>
  <rect x="27" y="15" width="1" height="1" fill="#3e546d"/>
  <rect x="28" y="15" width="1" height="1" fill="#4a6b88"/>
  <rect x="29" y="15" width="1" height="1" fill="#262d35"/>
  <rect x="30" y="15" width="1" height="1" fill="#4a6b88"/>
  <rect x="31" y="15" width="1" height="1" fill="#3e546d"/>
  <rect x="0" y="16" width="4" height="1" fill="#3e546d"/>
  <rect x="4" y="16" width="1" height="1" fill="#9ba7b1"/>
  <rect x="5" y="16" width="1" height="1" fill="#3e546d"/>
  <rect x="6" y="16" width="1" height="1" fill="#9ba7b1"/>
  <rect x="7" y="16" width="1" height="1" fill="#3e546d"/>
  <rect x="8" y="16" width="1" height="1" fill="#9ba7b1"/>
  <rect x="9" y="16" width="1" height="1" fill="#141b1f"/>
  <rect x="10" y="16" width="8" height="1" fill="#2c3a3c"/>
  <rect x="18" y="16" width="1" height="1" fill="#141b1f"/>
  <rect x="19" y="16" width="3" height="1" fill="#6fd6c8"/>
  <rect x="22" y="16" width="1" height="1" fill="#141b1f"/>
  <rect x="23" y="16" width="5" height="1" fill="#3e546d"/>
  <rect x="28" y="16" width="1" height="1" fill="#4a6b88"/>
  <rect x="29" y="16" width="1" height="1" fill="#262d35"/>
  <rect x="30" y="16" width="1" height="1" fill="#4a6b88"/>
  <rect x="31" y="16" width="1" height="1" fill="#3e546d"/>
  <rect x="0" y="17" width="1" height="1" fill="#3e546d"/>
  <rect x="1" y="17" width="2" height="1" fill="#ccd3d7"/>
  <rect x="3" y="17" width="6" height="1" fill="#3e546d"/>
  <rect x="9" y="17" width="1" height="1" fill="#141b1f"/>
  <rect x="10" y="17" width="2" height="1" fill="#e7ae2d"/>
  <rect x="12" y="17" width="1" height="1" fill="#2c3a3c"/>
  <rect x="13" y="17" width="2" height="1" fill="#e0ebeb"/>
  <rect x="15" y="17" width="1" height="1" fill="#2c3a3c"/>
  <rect x="16" y="17" width="2" height="1" fill="#6697c1"/>
  <rect x="18" y="17" width="1" height="1" fill="#2c3a3c"/>
  <rect x="19" y="17" width="1" height="1" fill="#6697c1"/>
  <rect x="20" y="17" width="1" height="1" fill="#e7ae2d"/>
  <rect x="21" y="17" width="1" height="1" fill="#e2524e"/>
  <rect x="22" y="17" width="1" height="1" fill="#141b1f"/>
  <rect x="23" y="17" width="1" height="1" fill="#3e546d"/>
  <rect x="24" y="17" width="1" height="1" fill="#262d35"/>
  <rect x="25" y="17" width="3" height="1" fill="#3e546d"/>
  <rect x="28" y="17" width="1" height="1" fill="#4a6b88"/>
  <rect x="29" y="17" width="1" height="1" fill="#262d35"/>
  <rect x="30" y="17" width="1" height="1" fill="#4a6b88"/>
  <rect x="31" y="17" width="1" height="1" fill="#3e546d"/>
  <rect x="0" y="18" width="1" height="1" fill="#3e546d"/>
  <rect x="1" y="18" width="2" height="1" fill="#ccd3d7"/>
  <rect x="3" y="18" width="1" height="1" fill="#3e546d"/>
  <rect x="4" y="18" width="1" height="1" fill="#9ba7b1"/>
  <rect x="5" y="18" width="1" height="1" fill="#3e546d"/>
  <rect x="6" y="18" width="1" height="1" fill="#9ba7b1"/>
  <rect x="7" y="18" width="2" height="1" fill="#3e546d"/>
  <rect x="9" y="18" width="1" height="1" fill="#141b1f"/>
  <rect x="10" y="18" width="2" height="1" fill="#e7ae2d"/>
  <rect x="12" y="18" width="4" height="1" fill="#e0ebeb"/>
  <rect x="16" y="18" width="4" height="1" fill="#6697c1"/>
  <rect x="20" y="18" width="1" height="1" fill="#e7ae2d"/>
  <rect x="21" y="18" width="1" height="1" fill="#e2524e"/>
  <rect x="22" y="18" width="1" height="1" fill="#141b1f"/>
  <rect x="23" y="18" width="5" height="1" fill="#3e546d"/>
  <rect x="28" y="18" width="1" height="1" fill="#4a6b88"/>
  <rect x="29" y="18" width="1" height="1" fill="#262d35"/>
  <rect x="30" y="18" width="1" height="1" fill="#4a6b88"/>
  <rect x="31" y="18" width="1" height="1" fill="#3e546d"/>
  <rect x="0" y="19" width="1" height="1" fill="#3e546d"/>
  <rect x="1" y="19" width="2" height="1" fill="#ccd3d7"/>
  <rect x="3" y="19" width="6" height="1" fill="#3e546d"/>
  <rect x="9" y="19" width="14" height="1" fill="#141b1f"/>
  <rect x="23" y="19" width="1" height="1" fill="#3e546d"/>
  <rect x="24" y="19" width="1" height="1" fill="#262d35"/>
  <rect x="25" y="19" width="3" height="1" fill="#3e546d"/>
  <rect x="28" y="19" width="3" height="1" fill="#4a6b88"/>
  <rect x="31" y="19" width="1" height="1" fill="#3e546d"/>
  <rect x="0" y="20" width="1" height="1" fill="#3e546d"/>
  <rect x="1" y="20" width="1" height="1" fill="#aeb8c2"/>
  <rect x="2" y="20" width="30" height="1" fill="#3e546d"/>
  <rect x="0" y="21" width="1" height="1" fill="#3e546d"/>
  <rect x="1" y="21" width="1" height="1" fill="#aeb8c2"/>
  <rect x="2" y="21" width="1" height="1" fill="#3e546d"/>
  <rect x="3" y="21" width="1" height="1" fill="#aeb8c2"/>
  <rect x="4" y="21" width="1" height="1" fill="#3e546d"/>
  <rect x="5" y="21" width="1" height="1" fill="#e3924f"/>
  <rect x="6" y="21" width="1" height="1" fill="#3e546d"/>
  <rect x="7" y="21" width="1" height="1" fill="#e3924f"/>
  <rect x="8" y="21" width="1" height="1" fill="#3e546d"/>
  <rect x="9" y="21" width="1" height="1" fill="#dfe3e6"/>
  <rect x="10" y="21" width="1" height="1" fill="#3e546d"/>
  <rect x="11" y="21" width="1" height="1" fill="#dfe3e6"/>
  <rect x="12" y="21" width="1" height="1" fill="#3e546d"/>
  <rect x="13" y="21" width="1" height="1" fill="#dfe3e6"/>
  <rect x="14" y="21" width="1" height="1" fill="#3e546d"/>
  <rect x="15" y="21" width="1" height="1" fill="#dfe3e6"/>
  <rect x="16" y="21" width="1" height="1" fill="#3e546d"/>
  <rect x="17" y="21" width="1" height="1" fill="#93a2c9"/>
  <rect x="18" y="21" width="1" height="1" fill="#3e546d"/>
  <rect x="19" y="21" width="1" height="1" fill="#93a2c9"/>
  <rect x="20" y="21" width="1" height="1" fill="#3e546d"/>
  <rect x="21" y="21" width="1" height="1" fill="#93a2c9"/>
  <rect x="22" y="21" width="1" height="1" fill="#3e546d"/>
  <rect x="23" y="21" width="1" height="1" fill="#93a2c9"/>
  <rect x="24" y="21" width="1" height="1" fill="#3e546d"/>
  <rect x="25" y="21" width="1" height="1" fill="#e3924f"/>
  <rect x="26" y="21" width="1" height="1" fill="#3e546d"/>
  <rect x="27" y="21" width="1" height="1" fill="#d85466"/>
  <rect x="28" y="21" width="1" height="1" fill="#3e546d"/>
  <rect x="29" y="21" width="1" height="1" fill="#262d35"/>
  <rect x="30" y="21" width="2" height="1" fill="#3e546d"/>
  <rect x="0" y="22" width="32" height="1" fill="#0e2b43"/>
  <rect x="0" y="23" width="5" height="1" fill="#1c3b59"/>
  <rect x="5" y="23" width="1" height="1" fill="#0a1c2b"/>
  <rect x="6" y="23" width="1" height="1" fill="#1c3b59"/>
  <rect x="7" y="23" width="1" height="1" fill="#0a1c2b"/>
  <rect x="8" y="23" width="1" height="1" fill="#1c3b59"/>
  <rect x="9" y="23" width="1" height="1" fill="#0a1c2b"/>
  <rect x="10" y="23" width="1" height="1" fill="#1c3b59"/>
  <rect x="11" y="23" width="1" height="1" fill="#0a1c2b"/>
  <rect x="12" y="23" width="1" height="1" fill="#1c3b59"/>
  <rect x="13" y="23" width="1" height="1" fill="#0a1c2b"/>
  <rect x="14" y="23" width="1" height="1" fill="#1c3b59"/>
  <rect x="15" y="23" width="1" height="1" fill="#0a1c2b"/>
  <rect x="16" y="23" width="1" height="1" fill="#1c3b59"/>
  <rect x="17" y="23" width="1" height="1" fill="#0a1c2b"/>
  <rect x="18" y="23" width="1" height="1" fill="#1c3b59"/>
  <rect x="19" y="23" width="1" height="1" fill="#0a1c2b"/>
  <rect x="20" y="23" width="1" height="1" fill="#1c3b59"/>
  <rect x="21" y="23" width="1" height="1" fill="#0a1c2b"/>
  <rect x="22" y="23" width="1" height="1" fill="#1c3b59"/>
  <rect x="23" y="23" width="1" height="1" fill="#0a1c2b"/>
  <rect x="24" y="23" width="1" height="1" fill="#1c3b59"/>
  <rect x="25" y="23" width="1" height="1" fill="#0a1c2b"/>
  <rect x="26" y="23" width="1" height="1" fill="#1c3b59"/>
  <rect x="27" y="23" width="1" height="1" fill="#0a1c2b"/>
  <rect x="28" y="23" width="4" height="1" fill="#1c3b59"/>
  <rect x="0" y="24" width="1" height="1" fill="#1c3b59"/>
  <rect x="1" y="24" width="2" height="1" fill="#b7c0cb"/>
  <rect x="3" y="24" width="5" height="1" fill="#1c3b59"/>
  <rect x="8" y="24" width="2" height="1" fill="#b7c0cb"/>
  <rect x="10" y="24" width="2" height="1" fill="#98a2ae"/>
  <rect x="12" y="24" width="2" height="1" fill="#b7c0cb"/>
  <rect x="14" y="24" width="2" height="1" fill="#98a2ae"/>
  <rect x="16" y="24" width="2" height="1" fill="#6787b6"/>
  <rect x="18" y="24" width="2" height="1" fill="#546f98"/>
  <rect x="20" y="24" width="2" height="1" fill="#6787b6"/>
  <rect x="22" y="24" width="2" height="1" fill="#546f98"/>
  <rect x="24" y="24" width="5" height="1" fill="#1c3b59"/>
  <rect x="29" y="24" width="2" height="1" fill="#b7c0cb"/>
  <rect x="31" y="24" width="1" height="1" fill="#1c3b59"/>
  <rect x="0" y="25" width="1" height="1" fill="#1c3b59"/>
  <rect x="1" y="25" width="2" height="1" fill="#6787b6"/>
  <rect x="3" y="25" width="1" height="1" fill="#1c3b59"/>
  <rect x="4" y="25" width="2" height="1" fill="#e8944d"/>
  <rect x="6" y="25" width="2" height="1" fill="#c97a3a"/>
  <rect x="8" y="25" width="2" height="1" fill="#b7c0cb"/>
  <rect x="10" y="25" width="2" height="1" fill="#98a2ae"/>
  <rect x="12" y="25" width="2" height="1" fill="#b7c0cb"/>
  <rect x="14" y="25" width="2" height="1" fill="#98a2ae"/>
  <rect x="16" y="25" width="2" height="1" fill="#6787b6"/>
  <rect x="18" y="25" width="2" height="1" fill="#546f98"/>
  <rect x="20" y="25" width="2" height="1" fill="#6787b6"/>
  <rect x="22" y="25" width="2" height="1" fill="#546f98"/>
  <rect x="24" y="25" width="2" height="1" fill="#e8944d"/>
  <rect x="26" y="25" width="2" height="1" fill="#c24a59"/>
  <rect x="28" y="25" width="1" height="1" fill="#1c3b59"/>
  <rect x="29" y="25" width="2" height="1" fill="#6787b6"/>
  <rect x="31" y="25" width="1" height="1" fill="#1c3b59"/>
  <rect x="0" y="26" width="1" height="1" fill="#1c3b59"/>
  <rect x="1" y="26" width="2" height="1" fill="#e8944d"/>
  <rect x="3" y="26" width="1" height="1" fill="#1c3b59"/>
  <rect x="4" y="26" width="2" height="1" fill="#e8944d"/>
  <rect x="6" y="26" width="2" height="1" fill="#c97a3a"/>
  <rect x="8" y="26" width="2" height="1" fill="#b7c0cb"/>
  <rect x="10" y="26" width="2" height="1" fill="#98a2ae"/>
  <rect x="12" y="26" width="2" height="1" fill="#b7c0cb"/>
  <rect x="14" y="26" width="2" height="1" fill="#98a2ae"/>
  <rect x="16" y="26" width="2" height="1" fill="#6787b6"/>
  <rect x="18" y="26" width="2" height="1" fill="#546f98"/>
  <rect x="20" y="26" width="2" height="1" fill="#6787b6"/>
  <rect x="22" y="26" width="2" height="1" fill="#546f98"/>
  <rect x="24" y="26" width="2" height="1" fill="#e8944d"/>
  <rect x="26" y="26" width="2" height="1" fill="#c24a59"/>
  <rect x="28" y="26" width="1" height="1" fill="#1c3b59"/>
  <rect x="29" y="26" width="2" height="1" fill="#e8944d"/>
  <rect x="31" y="26" width="1" height="1" fill="#1c3b59"/>
  <rect x="0" y="27" width="1" height="1" fill="#1c3b59"/>
  <rect x="1" y="27" width="2" height="1" fill="#de5f6d"/>
  <rect x="3" y="27" width="1" height="1" fill="#1c3b59"/>
  <rect x="4" y="27" width="3" height="1" fill="#aeb8c2"/>
  <rect x="7" y="27" width="1" height="1" fill="#1c3b59"/>
  <rect x="8" y="27" width="7" height="1" fill="#aeb8c2"/>
  <rect x="15" y="27" width="1" height="1" fill="#1c3b59"/>
  <rect x="16" y="27" width="7" height="1" fill="#aeb8c2"/>
  <rect x="23" y="27" width="1" height="1" fill="#1c3b59"/>
  <rect x="24" y="27" width="1" height="1" fill="#aeb8c2"/>
  <rect x="25" y="27" width="1" height="1" fill="#1c3b59"/>
  <rect x="26" y="27" width="1" height="1" fill="#aeb8c2"/>
  <rect x="27" y="27" width="2" height="1" fill="#1c3b59"/>
  <rect x="29" y="27" width="2" height="1" fill="#de5f6d"/>
  <rect x="31" y="27" width="1" height="1" fill="#1c3b59"/>
  <rect x="0" y="28" width="32" height="1" fill="#1c3b59"/>
  <rect x="1" y="29" width="30" height="1" fill="#1c3b59"/>
</svg>
